:FULLY-SPECIFIED
:FORCE-ALL-JOINTS-BE-3DOF
:DEGREES
1937
root 5.91502 13.6352 27.9099 1055.72 70.0657 332.875
lfemur -60.8747 3.21693 0.747765
ltibia 59.0128 0 0
lfoot 1.19142 -0.243414 0
ltoes -26.3229 0 0
rfemur -6.24724 9.62621 19.9003
rtibia 69.1391 0 0
rfoot -25.3462 -20.0932 0
rtoes -27.5758 0 0
lowerback 13.6955 5.23356 4.33868
upperback -0.641965 8.00189 3.1956
thorax -8.22654 3.78655 -0.649015
lowerneck -0.4016 15.4769 7.13785
upperneck 6.56714 21.1805 -7.40551
head 3.57112 10.5105 -2.35364
lclavicle 2.06656e-15 -4.97658e-15 0
lhumerus 79.3441 -32.9046 37.3301
lradius 53.7177 0 0
lwrist 9.75431 0 0
lhand -11.6052 34.7276 0
lfingers 7.12502 0 0
lthumb 19.6682 61.228 0
rclavicle 4.7779e-14 -1.17866e-14 0
rhumerus -38.6795 28.933 -75.4602
rradius 89.5211 0 0
rwrist -33.7495 0 0
rhand -11.4626 -403.096 0
rfingers 7.12502 0 0
rthumb 14.9581 288.311 0
1938
root 5.80277 13.6413 27.9313 1055.12 70.6703 332.224
lfemur -60.7823 1.52177 1.2253
ltibia 58.5402 0 0
lfoot 1.05319 -0.341538 0
ltoes -25.9843 0 0
rfemur -6.78216 10.817 20.0835
rtibia 69.4942 0 0
rfoot -25.2224 -19.6138 0
rtoes -28.2121 0 0
lowerback 13.6601 5.23926 4.21815
upperback -0.649551 7.99159 3.2243
thorax -8.23566 3.78773 -0.548666
lowerneck -0.136704 15.4204 7.22214
upperneck 6.20519 21.1032 -7.57858
head 3.44095 10.4812 -2.45522
lclavicle 3.86606e-15 -3.33365e-15 0
lhumerus 80.311 -34.448 34.6452
lradius 55.6466 0 0
lwrist 13.5935 0 0
lhand -11.494 34.7549 0
lfingers 7.12502 0 0
lthumb 20.4926 61.0647 0
rclavicle 4.65672e-14 -1.15295e-14 0
rhumerus -37.0046 30.5487 -74.9718
rradius 89.6653 0 0
rwrist -33.0312 0 0
rhand -11.1971 -403.141 0
rfingers 7.12502 0 0
rthumb 15.4638 288.483 0
1939
root 5.6853 13.65 27.9573 1054.34 71.2774 331.412
lfemur -60.6907 -0.16055 1.69923
ltibia 58.1863 0 0
lfoot 0.869036 -0.472264 0
ltoes -25.6641 0 0
rfemur -7.2606 11.8821 20.2473
rtibia 69.7148 0 0
rfoot -25.1215 -19.2228 0
rtoes -28.9427 0 0
lowerback 13.6678 5.24489 4.10145
upperback -0.604554 7.98659 3.29686
thorax -8.21812 3.79415 -0.406967
lowerneck -0.279369 15.456 7.08333
upperneck 6.18529 21.1464 -7.60244
head 3.44908 10.4959 -2.4309
lclavicle 5.7267e-15 -1.6349e-15 0
lhumerus 81.1035 -35.713 32.4445
lradius 58.0062 0 0
lwrist 17.1994 0 0
lhand -11.3804 34.7828 0
lfingers 7.12502 0 0
lthumb 21.1684 60.9309 0
rclavicle 4.52859e-14 -1.12576e-14 0
rhumerus -35.3015 32.1916 -74.4753
rradius 89.8946 0 0
rwrist -32.3273 0 0
rhand -10.9431 -403.184 0
rfingers 7.12502 0 0
rthumb 15.978 288.658 0
1940
root 5.563 13.6587 27.982 1053.68 71.9672 330.707
lfemur -60.6012 -1.8044 2.16232
ltibia 57.9643 0 0
lfoot 0.644361 -0.631757 0
ltoes -25.3662 0 0
rfemur -7.67317 12.8005 20.3886
rtibia 69.7906 0 0
rfoot -25.0461 -18.9306 0
rtoes -29.7505 0 0
lowerback 13.7464 5.37934 4.11913
upperback -0.705862 8.16663 3.17839
thorax -8.34771 3.87081 -0.589473
lowerneck -0.0613573 15.2836 7.36996
upperneck 6.08294 20.9206 -7.69307
head 3.40575 10.3945 -2.52945
lclavicle 7.62402e-15 9.73462e-17 0
lhumerus 81.6984 -36.6626 30.7927
lradius 60.7426 0 0
lwrist 20.5138 0 0
lhand -11.2669 34.8108 0
lfingers 7.12502 0 0
lthumb 21.6756 60.8304 0
rclavicle 4.39506e-14 -1.09743e-14 0
rhumerus -33.589 33.8435 -73.9759
rradius 90.2001 0 0
rwrist -31.6522 0 0
rhand -10.7046 -403.224 0
rfingers 7.12502 0 0
rthumb 16.4951 288.835 0
1941
root 5.43214 13.6735 28.014 1053.04 72.6785 329.899
lfemur -60.5152 -3.38412 2.60734
ltibia 57.8874 0 0
lfoot 0.384567 -0.816179 0
ltoes -25.0948 0 0
rfemur -8.01043 13.5513 20.5041
rtibia 69.7693 0 0
rfoot -24.9988 -18.7477 0
rtoes -30.6184 0 0
lowerback 13.7064 5.37191 3.89044
upperback -0.786957 8.12622 3.21532
thorax -8.45162 3.85889 -0.419759
lowerneck 0.0875733 15.2924 7.32644
upperneck 6.00172 20.9413 -7.73968
head 3.35972 10.4085 -2.55164
lclavicle 9.53357e-15 1.84075e-15 0
lhumerus 82.0724 -37.2596 29.7542
lradius 63.802 0 0
lwrist 23.4782 0 0
lhand -11.1557 34.8381 0
lfingers 7.12502 0 0
lthumb 21.9945 60.7672 0
rclavicle 4.25768e-14 -1.06828e-14 0
rhumerus -31.8859 35.4864 -73.4794
rradius 90.5728 0 0
rwrist -31.0203 0 0
rhand -10.4854 -403.26 0
rfingers 7.12502 0 0
rthumb 17.0093 289.01 0
1942
root 5.29839 13.6929 28.0462 1052.25 73.4429 328.994
lfemur -60.434 -4.87405 3.02707
ltibia 57.8421 0 0
lfoot 0.0950566 -1.0217 0
ltoes -24.854 0 0
rfemur -8.26299 14.1136 20.5906
rtibia 69.7075 0 0
rfoot -24.9825 -18.6844 0
rtoes -31.5292 0 0
lowerback 13.704 5.39532 3.72839
upperback -0.822122 8.12795 3.17044
thorax -8.50376 3.86354 -0.381356
lowerneck -0.0837178 15.1109 7.23887
upperneck 5.91251 20.6615 -7.56508
head 3.31155 10.2685 -2.50523
lclavicle 1.14309e-14 3.573e-15 0
lhumerus 82.2022 -37.4668 29.3937
lradius 67.1305 0 0
lwrist 26.0344 0 0
lhand -11.049 34.8643 0
lfingers 7.12502 0 0
lthumb 22.1052 60.7453 0
rclavicle 4.11799e-14 -1.03864e-14 0
rhumerus -30.211 37.1021 -72.991
rradius 91.0038 0 0
rwrist -30.4461 0 0
rhand -10.2893 -403.293 0
rfingers 7.12502 0 0
rthumb 17.515 289.182 0
1943
root 5.15714 13.7159 28.0805 1051.59 74.2962 328.141
lfemur -60.3592 -6.24856 3.41428
ltibia 57.7112 0 0
lfoot -0.218768 -1.24447 0
ltoes -24.6479 0 0
rfemur -8.42143 14.4663 20.6449
rtibia 69.6084 0 0
rfoot -25.0013 -18.7859 0
rtoes -32.4657 0 0
lowerback 13.6347 5.31938 3.43456
upperback -0.837053 7.97604 3.17306
thorax -8.52356 3.80319 -0.183154
lowerneck -0.170368 15.1643 7.16025
upperneck 5.91626 20.7345 -7.61127
head 3.32882 10.2998 -2.49546
lclavicle 1.32915e-14 5.27175e-15 0
lhumerus 82.2176 -37.4809 29.3552
lradius 70.6744 0 0
lwrist 28.1241 0 0
lhand -10.9492 34.8889 0
lfingers 7.12502 0 0
lthumb 22.0203 60.7907 0
rclavicle 3.97752e-14 -1.00884e-14 0
rhumerus -28.5831 38.6725 -72.5164
rradius 91.484 0 0
rwrist -29.944 0 0
rhand -10.1202 -403.322 0
rfingers 7.12502 0 0
rthumb 18.0065 289.349 0
1944
root 5.01203 13.743 28.1192 1050.34 75.1715 326.725
lfemur -60.292 -7.48198 3.76174
ltibia 57.5021 0 0
lfoot -0.551502 -1.48068 0
ltoes -24.4804 0 0
rfemur -8.47633 14.5885 20.6637
rtibia 69.475 0 0
rfoot -25.0552 -19.0771 0
rtoes -33.4108 0 0
lowerback 13.6221 5.3086 3.33969
upperback -0.867763 7.94125 3.11659
thorax -8.55439 3.78772 -0.184502
lowerneck -0.186969 15.0584 7.17717
upperneck 5.82136 20.5835 -7.63511
head 3.29584 10.2253 -2.51823
lclavicle 1.5091e-14 6.91468e-15 0
lhumerus 82.2622 -37.522 29.2435
lradius 74.3797 0 0
lwrist 29.689 0 0
lhand -10.8585 34.9112 0
lfingers 7.12502 0 0
lthumb 21.7767 60.921 0
rclavicle 3.83783e-14 -9.79199e-15 0
rhumerus -27.0211 40.1793 -72.061
rradius 92.0046 0 0
rwrist -29.5284 0 0
rhand -9.98201 -403.345 0
rfingers 7.12502 0 0
rthumb 18.4782 289.51 0
1945
root 4.86054 13.7752 28.1609 1048.83 76.0892 325.031
lfemur -60.2339 -8.54866 4.06224
ltibia 57.2223 0 0
lfoot -0.897744 -1.72647 0
ltoes -24.3558 0 0
rfemur -8.52452 14.4819 20.7233
rtibia 69.3104 0 0
rfoot -25.1406 -19.538 0
rtoes -34.3473 0 0
lowerback 13.5806 5.24383 3.23591
upperback -0.864107 7.82976 3.06109
thorax -8.53361 3.73753 -0.159893
lowerneck -0.297206 15.0743 7.16482
upperneck 5.84764 20.6004 -7.63951
head 3.32174 10.2298 -2.50631
lclavicle 1.68049e-14 8.47947e-15 0
lhumerus 82.3337 -37.5879 29.0642
lradius 78.1927 0 0
lwrist 30.6706 0 0
lhand -10.7791 34.9307 0
lfingers 7.12502 0 0
lthumb 21.3911 61.1273 0
rclavicle 3.70045e-14 -9.50049e-15 0
rhumerus -25.5436 41.6046 -71.6302
rradius 92.5566 0 0
rwrist -29.2137 0 0
rhand -9.8785 -403.362 0
rfingers 7.12502 0 0
rthumb 18.9243 289.662 0
1946
root 4.70506 13.8078 28.2126 1046.23 76.8879 322.24
lfemur -60.1863 -9.42296 4.30854
ltibia 56.8791 0 0
lfoot -1.25209 -1.97801 0
ltoes -24.278 0 0
rfemur -8.66277 14.176 20.8943
rtibia 69.1178 0 0
rfoot -25.2536 -20.1487 0
rtoes -35.2581 0 0
lowerback 13.5396 5.14739 3.19753
upperback -0.854558 7.69883 3.10892
thorax -8.5136 3.67899 -0.0581327
lowerneck -0.235149 15.0214 7.57908
upperneck 5.70097 20.5603 -8.17957
head 3.36296 10.2078 -2.7164
lclavicle 1.84088e-14 9.94379e-15 0
lhumerus 82.4301 -37.6765 28.8229
lradius 82.0596 0 0
lwrist 31.0108 0 0
lhand -10.7134 34.9468 0
lfingers 7.12502 0 0
lthumb 20.8803 61.4005 0
rclavicle 3.56692e-14 -9.21717e-15 0
rhumerus -24.1695 42.9301 -71.2295
rradius 93.1309 0 0
rwrist -29.0143 0 0
rhand -9.81357 -403.373 0
rfingers 7.12502 0 0
rthumb 19.3391 289.803 0
1947
root 4.54444 13.8394 28.249 1043.34 78.0145 319.108
lfemur -60.1506 -10.0792 4.49341
ltibia 56.4802 0 0
lfoot -1.60914 -2.23147 0
ltoes -24.2512 0 0
rfemur -8.8816 13.6919 21.165
rtibia 68.9003 0 0
rfoot -25.3908 -20.8892 0
rtoes -36.126 0 0
lowerback 13.5627 4.99797 3.29653
upperback -0.857909 7.50955 3.0305
thorax -8.50827 3.58055 -0.158991
lowerneck -0.553754 15.0376 7.25379
upperneck 5.82157 20.555 -7.91719
head 3.38949 10.1951 -2.57529
lclavicle 1.98782e-14 1.12853e-14 0
lhumerus 82.5489 -37.7858 28.5253
lradius 85.9264 0 0
lwrist 30.9367 0 0
lhand -10.6637 34.959 0
lfingers 7.12502 0 0
lthumb 20.2609 61.7319 0
rclavicle 3.43879e-14 -8.94531e-15 0
rhumerus -22.9177 44.1377 -70.8645
rradius 93.7188 0 0
rwrist -28.9446 0 0
rhand -9.79107 -403.377 0
rfingers 7.12502 0 0
rthumb 19.7171 289.932 0
1948
root 4.38268 13.8766 28.2993 1039.18 78.9719 314.703
lfemur -60.1281 -10.4918 4.60963
ltibia 56.0328 0 0
lfoot -1.96349 -2.48302 0
ltoes -24.2785 0 0
rfemur -9.17153 13.0505 21.5236
rtibia 68.661 0 0
rfoot -25.5482 -21.7396 0
rtoes -36.9338 0 0
lowerback 13.5188 4.83368 3.40435
upperback -0.873333 7.30735 3.02377
thorax -8.4884 3.47885 -0.181213
lowerneck -0.60918 15.1284 7.24891
upperneck 5.88374 20.6829 -7.95273
head 3.43004 10.2548 -2.56688
lclavicle 2.11885e-14 1.24817e-14 0
lhumerus 82.6879 -37.9138 28.177
lradius 89.7394 0 0
lwrist 30.7243 0 0
lhand -10.6322 34.9668 0
lfingers 7.12502 0 0
lthumb 19.5496 62.1123 0
rclavicle 3.31761e-14 -8.68817e-15 0
rhumerus -21.8068 45.2093 -70.5407
rradius 94.311 0 0
rwrist -29.0625 0 0
rhand -9.75096 -403.37 0
rfingers 7.12502 0 0
rthumb 20.0525 290.046 0
